<svg width="79" height="33" viewBox="0 0 79 33" fill="none" xmlns="http://www.w3.org/2000/svg">
<path d="M0 16.5C0 7.3873 7.3873 0 16.5 0H62.5C71.6127 0 79 7.3873 79 16.5C79 25.6127 71.6127 33 62.5 33H16.5C7.3873 33 0 25.6127 0 16.5Z" fill="#FF6838"/>
<path d="M41.121 11.293C40.9335 11.4805 40.8282 11.7348 40.8282 12C40.8282 12.2652 40.9335 12.5195 41.121 12.707L44.413 16L34 16.007C33.7348 16.007 33.4804 16.1124 33.2929 16.2999C33.1054 16.4874 33 16.7418 33 17.007C33 17.2722 33.1054 17.5266 33.2929 17.7141C33.4804 17.9016 33.7348 18.007 34 18.007L44.414 18L41.121 21.293C41.0255 21.3852 40.9493 21.4956 40.8969 21.6176C40.8445 21.7396 40.8169 21.8708 40.8157 22.0036C40.8146 22.1364 40.8399 22.2681 40.8902 22.391C40.9405 22.5138 41.0147 22.6255 41.1086 22.7194C41.2025 22.8133 41.3141 22.8875 41.437 22.9378C41.5599 22.9881 41.6916 23.0134 41.8244 23.0123C41.9572 23.0111 42.0884 22.9835 42.2104 22.9311C42.3324 22.8787 42.4428 22.8025 42.535 22.707L46.121 19.122C46.3996 18.8434 46.6207 18.5127 46.7715 18.1487C46.9222 17.7847 46.9999 17.3945 46.9999 17.0005C46.9999 16.6065 46.9222 16.2163 46.7715 15.8523C46.6207 15.4883 46.3996 15.1576 46.121 14.879L42.535 11.293C42.3475 11.1055 42.0932 11.0002 41.828 11.0002C41.5628 11.0002 41.3085 11.1055 41.121 11.293Z" fill="white"/>
</svg>
